<svg width="1655" height="760" viewBox="0 0 1655 760" fill="none" xmlns="http://www.w3.org/2000/svg">
<g filter="url(#filter0_d_113_136)">
<path d="M190.92 372.8V359.36C196.68 362.4 202.92 364.88 209.64 366.8C216.36 368.72 222.6 369.68 228.36 369.68C239.4 369.68 247.64 366.72 253.08 360.8C258.52 354.72 261.24 346.32 261.24 335.6V218.72L225.96 214.4V205.52H275.64V336.8C275.64 351.04 271.64 362.24 263.64 370.4C255.8 378.56 244.52 382.64 229.8 382.64C222.92 382.64 215.88 381.68 208.68 379.76C201.48 377.84 195.56 375.52 190.92 372.8ZM667.708 380V205.52H723.148C762.188 205.52 781.708 222 781.708 254.96C781.708 281.84 767.148 297.84 738.028 302.96L789.628 380H772.828L723.388 305.6L682.108 301.52V380H667.708ZM682.108 291.68H717.388C734.508 291.68 747.068 288.72 755.068 282.8C763.228 276.88 767.308 267.6 767.308 254.96C767.308 245.36 765.548 237.92 762.028 232.64C758.668 227.2 752.828 223.44 744.508 221.36C736.188 219.12 724.748 218 710.188 218H682.108V291.68ZM814.661 380V205.52H828.581L931.061 355.76V205.52H945.221V380H931.301L828.821 229.76V380H814.661ZM968.687 380L1038.05 205.52H1052.93L1122.29 380H1106.45L1087.97 332H1002.77L984.287 380H968.687ZM1007.57 319.52H1083.17L1045.49 221.12L1007.57 319.52ZM1145.83 380V205.52H1195.03C1251.51 205.52 1279.75 234.64 1279.75 292.88C1279.75 350.96 1251.51 380 1195.03 380H1145.83ZM1194.55 218.24H1160.23V367.28H1194.55C1241.43 367.28 1264.87 342.48 1264.87 292.88C1264.87 243.12 1241.43 218.24 1194.55 218.24ZM1290.95 380L1360.31 205.52H1375.19L1444.55 380H1428.71L1410.23 332H1325.03L1306.55 380H1290.95ZM1329.83 319.52H1405.43L1367.75 221.12L1329.83 319.52Z" fill="white"/>
<path d="M564.36 548V431.68H640.04V452.8H589.32V478.72H635.4V499.84H589.32V526.88H641.64V548H564.36ZM720.313 548L716.953 535.52C710.126 545.12 701.273 549.92 690.393 549.92C679.299 549.92 670.553 546.027 664.153 538.24C657.753 530.347 654.553 519.52 654.553 505.76C654.553 491.787 657.646 480.907 663.833 473.12C670.126 465.333 678.926 461.44 690.233 461.44C698.659 461.44 705.859 464.267 711.833 469.92V427.84H736.153V548H720.313ZM679.033 505.6C679.033 514.133 680.473 520.693 683.353 525.28C686.233 529.867 690.286 532.16 695.513 532.16C698.819 532.16 701.913 531.36 704.793 529.76C707.779 528.053 710.233 525.813 712.153 523.04V486.88C707.886 481.76 702.393 479.2 695.673 479.2C690.339 479.2 686.233 481.493 683.353 486.08C680.473 490.56 679.033 497.067 679.033 505.6ZM715.353 516.16L714.393 518.72C714.819 517.867 715.139 517.013 715.353 516.16ZM756.51 515.36V463.36H780.83V514.56C780.83 524.907 784.883 530.08 792.99 530.08C796.617 530.08 799.923 528.96 802.91 526.72C806.003 524.373 808.403 521.227 810.11 517.28V463.36H834.43V548H818.59L815.23 535.04C807.443 544.96 797.577 549.92 785.63 549.92C776.243 549.92 769.043 546.933 764.03 540.96C759.017 534.987 756.51 526.453 756.51 515.36ZM918.791 526.4V545.44C915.485 546.72 911.591 547.787 907.111 548.64C902.631 549.493 898.045 549.92 893.351 549.92C865.298 549.92 851.271 534.88 851.271 504.8C851.271 491.36 855.111 480.8 862.791 473.12C870.578 465.333 881.245 461.44 894.791 461.44C902.151 461.44 909.351 462.667 916.391 465.12V483.84C911.165 481.173 905.405 479.84 899.111 479.84C891.645 479.84 885.885 481.92 881.831 486.08C877.778 490.133 875.751 496.373 875.751 504.8C875.751 512.907 877.511 519.36 881.031 524.16C884.658 528.853 889.938 531.2 896.871 531.2C900.285 531.2 903.805 530.773 907.431 529.92C911.058 529.067 914.845 527.893 918.791 526.4ZM987.774 548L984.574 536.16C981.694 540.427 977.907 543.787 973.214 546.24C968.627 548.693 963.507 549.92 957.854 549.92C949.107 549.92 942.174 547.52 937.054 542.72C932.04 537.92 929.534 531.307 929.534 522.88C929.534 514.027 932.894 507.04 939.614 501.92C946.334 496.8 955.4 494.24 966.814 494.24H980.734V491.2C980.734 486.507 979.56 483.467 977.214 482.08C974.867 480.693 971.187 480 966.174 480C957.214 480 947.56 482.027 937.214 486.08V467.68C941.48 465.867 946.44 464.373 952.094 463.2C957.854 462.027 963.667 461.44 969.534 461.44C980.627 461.44 989.054 464 994.814 469.12C1000.68 474.133 1003.61 481.387 1003.61 490.88V548H987.774ZM964.094 532.16C967.614 532.16 970.867 531.253 973.854 529.44C976.84 527.627 979.294 525.173 981.214 522.08V508.32H969.854C964.307 508.32 959.987 509.387 956.894 511.52C953.907 513.653 952.414 516.693 952.414 520.64C952.414 528.32 956.307 532.16 964.094 532.16ZM1085.31 548L1081.95 535.52C1075.13 545.12 1066.27 549.92 1055.39 549.92C1044.3 549.92 1035.55 546.027 1029.15 538.24C1022.75 530.347 1019.55 519.52 1019.55 505.76C1019.55 491.787 1022.65 480.907 1028.83 473.12C1035.13 465.333 1043.93 461.44 1055.23 461.44C1063.66 461.44 1070.86 464.267 1076.83 469.92V427.84H1101.15V548H1085.31ZM1044.03 505.6C1044.03 514.133 1045.47 520.693 1048.35 525.28C1051.23 529.867 1055.29 532.16 1060.51 532.16C1063.82 532.16 1066.91 531.36 1069.79 529.76C1072.78 528.053 1075.23 525.813 1077.15 523.04V486.88C1072.89 481.76 1067.39 479.2 1060.67 479.2C1055.34 479.2 1051.23 481.493 1048.35 486.08C1045.47 490.56 1044.03 497.067 1044.03 505.6ZM1080.35 516.16L1079.39 518.72C1079.82 517.867 1080.14 517.013 1080.35 516.16ZM1160.07 549.92C1146.84 549.92 1136.5 546.027 1129.03 538.24C1121.67 530.453 1117.99 519.573 1117.99 505.6C1117.99 491.627 1121.67 480.8 1129.03 473.12C1136.5 465.333 1146.84 461.44 1160.07 461.44C1173.4 461.44 1183.75 465.333 1191.11 473.12C1198.47 480.8 1202.15 491.627 1202.15 505.6C1202.15 519.573 1198.47 530.453 1191.11 538.24C1183.75 546.027 1173.4 549.92 1160.07 549.92ZM1160.07 531.52C1171.8 531.52 1177.67 522.88 1177.67 505.6C1177.67 488.427 1171.8 479.84 1160.07 479.84C1148.34 479.84 1142.47 488.427 1142.47 505.6C1142.47 522.88 1148.34 531.52 1160.07 531.52ZM1243.19 548H1218.87V463.36H1234.71L1238.07 475.84C1240.85 471.787 1244.31 468.64 1248.47 466.4C1252.63 464.053 1257.43 462.88 1262.87 462.88C1265.22 462.88 1267.25 463.04 1268.95 463.36V485.28H1263.83C1258.39 485.28 1253.86 486.72 1250.23 489.6C1246.61 492.373 1244.26 496.107 1243.19 500.8V548Z" fill="white"/>
<path d="M397.1 506V433.3H421.5C433.367 433.3 442.333 436.367 448.4 442.5C454.467 448.633 457.5 457.7 457.5 469.7C457.5 481.567 454.467 490.6 448.4 496.8C442.4 502.933 433.433 506 421.5 506H397.1ZM421.3 446H412.7V493.3H421.3C428.033 493.3 433.033 491.4 436.3 487.6C439.633 483.733 441.3 477.767 441.3 469.7C441.3 461.633 439.667 455.667 436.4 451.8C433.133 447.933 428.1 446 421.3 446ZM500.084 507.4C489.218 507.4 480.818 504.133 474.884 497.6C469.018 491 466.084 481.667 466.084 469.6C466.084 457.667 469.051 448.4 474.984 441.8C480.918 435.2 489.284 431.9 500.084 431.9C510.884 431.9 519.251 435.2 525.184 441.8C531.118 448.4 534.084 457.667 534.084 469.6C534.084 481.667 531.151 491 525.284 497.6C519.418 504.133 511.018 507.4 500.084 507.4ZM500.084 494.1C506.151 494.1 510.651 492 513.584 487.8C516.584 483.6 518.084 477.533 518.084 469.6C518.084 461.667 516.584 455.633 513.584 451.5C510.651 447.3 506.151 445.2 500.084 445.2C494.018 445.2 489.484 447.3 486.484 451.5C483.551 455.633 482.084 461.667 482.084 469.6C482.084 477.533 483.551 483.6 486.484 487.8C489.484 492 494.018 494.1 500.084 494.1Z" fill="white"/>
<path fill-rule="evenodd" clip-rule="evenodd" d="M417.066 398.857C388.921 399.588 361.687 388.908 341.523 369.252C321.37 349.598 310 322.62 310 294.445C310 266.283 321.37 239.305 341.523 219.64C361.687 199.984 388.921 189.304 417.066 190.035H538.35C565.551 190.745 591.396 202.052 610.384 221.558C629.372 241.065 640 267.216 640 294.445C640 321.676 629.372 347.838 610.384 367.334C591.396 386.841 565.551 398.147 538.35 398.857H417.066ZM535.605 362.1C553.895 362.684 571.644 355.827 584.784 343.09C597.923 330.356 605.35 312.83 605.35 294.521C605.35 276.21 597.923 258.686 584.784 245.939C571.644 233.202 553.895 226.347 535.605 226.94H419.735C402.198 227.502 385.573 234.877 373.376 247.486C361.169 260.095 354.345 276.963 354.345 294.521C354.345 312.077 361.169 328.934 373.376 341.554C385.573 354.163 402.198 361.527 419.735 362.1H535.605Z" fill="#C74634"/>
</g>
<defs>
<filter id="filter0_d_113_136" x="0.920013" y="0" width="1653.63" height="759.92" filterUnits="userSpaceOnUse" color-interpolation-filters="sRGB">
<feFlood flood-opacity="0" result="BackgroundImageFix"/>
<feColorMatrix in="SourceAlpha" type="matrix" values="0 0 0 0 0 0 0 0 0 0 0 0 0 0 0 0 0 0 127 0" result="hardAlpha"/>
<feOffset dx="10" dy="10"/>
<feGaussianBlur stdDeviation="100"/>
<feComposite in2="hardAlpha" operator="out"/>
<feColorMatrix type="matrix" values="0 0 0 0 0 0 0 0 0 0 0 0 0 0 0 0 0 0 0.34 0"/>
<feBlend mode="normal" in2="BackgroundImageFix" result="effect1_dropShadow_113_136"/>
<feBlend mode="normal" in="SourceGraphic" in2="effect1_dropShadow_113_136" result="shape"/>
</filter>
</defs>
</svg>
