<svg width="1946" height="974" viewBox="0 0 1946 974" fill="none" xmlns="http://www.w3.org/2000/svg">
<path d="M400.92 498.8V485.36C406.68 488.4 412.92 490.88 419.64 492.8C426.36 494.72 432.6 495.68 438.36 495.68C449.4 495.68 457.64 492.72 463.08 486.8C468.52 480.72 471.24 472.32 471.24 461.6V344.72L435.96 340.4V331.52H485.64V462.8C485.64 477.04 481.64 488.24 473.64 496.4C465.8 504.56 454.52 508.64 439.8 508.64C432.92 508.64 425.88 507.68 418.68 505.76C411.48 503.84 405.56 501.52 400.92 498.8ZM877.708 506V331.52H933.148C972.188 331.52 991.708 348 991.708 380.96C991.708 407.84 977.148 423.84 948.028 428.96L999.628 506H982.828L933.388 431.6L892.108 427.52V506H877.708ZM892.108 417.68H927.388C944.508 417.68 957.068 414.72 965.068 408.8C973.228 402.88 977.308 393.6 977.308 380.96C977.308 371.36 975.548 363.92 972.028 358.64C968.668 353.2 962.828 349.44 954.508 347.36C946.188 345.12 934.748 344 920.188 344H892.108V417.68ZM1024.66 506V331.52H1038.58L1141.06 481.76V331.52H1155.22V506H1141.3L1038.82 355.76V506H1024.66ZM1178.69 506L1248.05 331.52H1262.93L1332.29 506H1316.45L1297.97 458H1212.77L1194.29 506H1178.69ZM1217.57 445.52H1293.17L1255.49 347.12L1217.57 445.52ZM1355.83 506V331.52H1405.03C1461.51 331.52 1489.75 360.64 1489.75 418.88C1489.75 476.96 1461.51 506 1405.03 506H1355.83ZM1404.55 344.24H1370.23V493.28H1404.55C1451.43 493.28 1474.87 468.48 1474.87 418.88C1474.87 369.12 1451.43 344.24 1404.55 344.24ZM1500.95 506L1570.31 331.52H1585.19L1654.55 506H1638.71L1620.23 458H1535.03L1516.55 506H1500.95ZM1539.83 445.52H1615.43L1577.75 347.12L1539.83 445.52Z" fill="white"/>
<path d="M774.36 674V557.68H850.04V578.8H799.32V604.72H845.4V625.84H799.32V652.88H851.64V674H774.36ZM930.313 674L926.953 661.52C920.126 671.12 911.273 675.92 900.393 675.92C889.299 675.92 880.553 672.027 874.153 664.24C867.753 656.347 864.553 645.52 864.553 631.76C864.553 617.787 867.646 606.907 873.833 599.12C880.126 591.333 888.926 587.44 900.233 587.44C908.659 587.44 915.859 590.267 921.833 595.92V553.84H946.153V674H930.313ZM889.033 631.6C889.033 640.133 890.473 646.693 893.353 651.28C896.233 655.867 900.286 658.16 905.513 658.16C908.819 658.16 911.913 657.36 914.793 655.76C917.779 654.053 920.233 651.813 922.153 649.04V612.88C917.886 607.76 912.393 605.2 905.673 605.2C900.339 605.2 896.233 607.493 893.353 612.08C890.473 616.56 889.033 623.067 889.033 631.6ZM925.353 642.16L924.393 644.72C924.819 643.867 925.139 643.013 925.353 642.16ZM966.51 641.36V589.36H990.83V640.56C990.83 650.907 994.883 656.08 1002.99 656.08C1006.62 656.08 1009.92 654.96 1012.91 652.72C1016 650.373 1018.4 647.227 1020.11 643.28V589.36H1044.43V674H1028.59L1025.23 661.04C1017.44 670.96 1007.58 675.92 995.63 675.92C986.243 675.92 979.043 672.933 974.03 666.96C969.017 660.987 966.51 652.453 966.51 641.36ZM1128.79 652.4V671.44C1125.48 672.72 1121.59 673.787 1117.11 674.64C1112.63 675.493 1108.04 675.92 1103.35 675.92C1075.3 675.92 1061.27 660.88 1061.27 630.8C1061.27 617.36 1065.11 606.8 1072.79 599.12C1080.58 591.333 1091.24 587.44 1104.79 587.44C1112.15 587.44 1119.35 588.667 1126.39 591.12V609.84C1121.16 607.173 1115.4 605.84 1109.11 605.84C1101.64 605.84 1095.88 607.92 1091.83 612.08C1087.78 616.133 1085.75 622.373 1085.75 630.8C1085.75 638.907 1087.51 645.36 1091.03 650.16C1094.66 654.853 1099.94 657.2 1106.87 657.2C1110.28 657.2 1113.8 656.773 1117.43 655.92C1121.06 655.067 1124.84 653.893 1128.79 652.4ZM1197.77 674L1194.57 662.16C1191.69 666.427 1187.91 669.787 1183.21 672.24C1178.63 674.693 1173.51 675.92 1167.85 675.92C1159.11 675.92 1152.17 673.52 1147.05 668.72C1142.04 663.92 1139.53 657.307 1139.53 648.88C1139.53 640.027 1142.89 633.04 1149.61 627.92C1156.33 622.8 1165.4 620.24 1176.81 620.24H1190.73V617.2C1190.73 612.507 1189.56 609.467 1187.21 608.08C1184.87 606.693 1181.19 606 1176.17 606C1167.21 606 1157.56 608.027 1147.21 612.08V593.68C1151.48 591.867 1156.44 590.373 1162.09 589.2C1167.85 588.027 1173.67 587.44 1179.53 587.44C1190.63 587.44 1199.05 590 1204.81 595.12C1210.68 600.133 1213.61 607.387 1213.61 616.88V674H1197.77ZM1174.09 658.16C1177.61 658.16 1180.87 657.253 1183.85 655.44C1186.84 653.627 1189.29 651.173 1191.21 648.08V634.32H1179.85C1174.31 634.32 1169.99 635.387 1166.89 637.52C1163.91 639.653 1162.41 642.693 1162.41 646.64C1162.41 654.32 1166.31 658.16 1174.09 658.16ZM1295.31 674L1291.95 661.52C1285.13 671.12 1276.27 675.92 1265.39 675.92C1254.3 675.92 1245.55 672.027 1239.15 664.24C1232.75 656.347 1229.55 645.52 1229.55 631.76C1229.55 617.787 1232.65 606.907 1238.83 599.12C1245.13 591.333 1253.93 587.44 1265.23 587.44C1273.66 587.44 1280.86 590.267 1286.83 595.92V553.84H1311.15V674H1295.31ZM1254.03 631.6C1254.03 640.133 1255.47 646.693 1258.35 651.28C1261.23 655.867 1265.29 658.16 1270.51 658.16C1273.82 658.16 1276.91 657.36 1279.79 655.76C1282.78 654.053 1285.23 651.813 1287.15 649.04V612.88C1282.89 607.76 1277.39 605.2 1270.67 605.2C1265.34 605.2 1261.23 607.493 1258.35 612.08C1255.47 616.56 1254.03 623.067 1254.03 631.6ZM1290.35 642.16L1289.39 644.72C1289.82 643.867 1290.14 643.013 1290.35 642.16ZM1370.07 675.92C1356.84 675.92 1346.5 672.027 1339.03 664.24C1331.67 656.453 1327.99 645.573 1327.99 631.6C1327.99 617.627 1331.67 606.8 1339.03 599.12C1346.5 591.333 1356.84 587.44 1370.07 587.44C1383.4 587.44 1393.75 591.333 1401.11 599.12C1408.47 606.8 1412.15 617.627 1412.15 631.6C1412.15 645.573 1408.47 656.453 1401.11 664.24C1393.75 672.027 1383.4 675.92 1370.07 675.92ZM1370.07 657.52C1381.8 657.52 1387.67 648.88 1387.67 631.6C1387.67 614.427 1381.8 605.84 1370.07 605.84C1358.34 605.84 1352.47 614.427 1352.47 631.6C1352.47 648.88 1358.34 657.52 1370.07 657.52ZM1453.19 674H1428.87V589.36H1444.71L1448.07 601.84C1450.85 597.787 1454.31 594.64 1458.47 592.4C1462.63 590.053 1467.43 588.88 1472.87 588.88C1475.22 588.88 1477.25 589.04 1478.95 589.36V611.28H1473.83C1468.39 611.28 1463.86 612.72 1460.23 615.6C1456.61 618.373 1454.26 622.107 1453.19 626.8V674Z" fill="white"/>
<path d="M607.1 632V559.3H631.5C643.367 559.3 652.333 562.367 658.4 568.5C664.467 574.633 667.5 583.7 667.5 595.7C667.5 607.567 664.467 616.6 658.4 622.8C652.4 628.933 643.433 632 631.5 632H607.1ZM631.3 572H622.7V619.3H631.3C638.033 619.3 643.033 617.4 646.3 613.6C649.633 609.733 651.3 603.767 651.3 595.7C651.3 587.633 649.667 581.667 646.4 577.8C643.133 573.933 638.1 572 631.3 572ZM710.084 633.4C699.218 633.4 690.818 630.133 684.884 623.6C679.018 617 676.084 607.667 676.084 595.6C676.084 583.667 679.051 574.4 684.984 567.8C690.918 561.2 699.284 557.9 710.084 557.9C720.884 557.9 729.251 561.2 735.184 567.8C741.118 574.4 744.084 583.667 744.084 595.6C744.084 607.667 741.151 617 735.284 623.6C729.418 630.133 721.018 633.4 710.084 633.4ZM710.084 620.1C716.151 620.1 720.651 618 723.584 613.8C726.584 609.6 728.084 603.533 728.084 595.6C728.084 587.667 726.584 581.633 723.584 577.5C720.651 573.3 716.151 571.2 710.084 571.2C704.018 571.2 699.484 573.3 696.484 577.5C693.551 581.633 692.084 587.667 692.084 595.6C692.084 603.533 693.551 609.6 696.484 613.8C699.484 618 704.018 620.1 710.084 620.1Z" fill="white"/>
<path fill-rule="evenodd" clip-rule="evenodd" d="M627.066 524.857C598.921 525.588 571.687 514.908 551.523 495.252C531.37 475.598 520 448.62 520 420.445C520 392.283 531.37 365.305 551.523 345.64C571.687 325.984 598.921 315.304 627.066 316.035H748.35C775.551 316.745 801.396 328.052 820.384 347.558C839.372 367.065 850 393.216 850 420.445C850 447.676 839.372 473.838 820.384 493.334C801.396 512.841 775.551 524.147 748.35 524.857H627.066ZM745.605 488.1C763.895 488.684 781.644 481.827 794.784 469.09C807.923 456.356 815.35 438.83 815.35 420.521C815.35 402.21 807.923 384.686 794.784 371.939C781.644 359.202 763.895 352.347 745.605 352.94H629.735C612.198 353.502 595.573 360.877 583.376 373.486C571.169 386.095 564.345 402.963 564.345 420.521C564.345 438.077 571.169 454.934 583.376 467.554C595.573 480.163 612.198 487.527 629.735 488.1H745.605Z" fill="#C74634"/>
</svg>
